<?xml version="1.0" standalone="no"?>
<!DOCTYPE svg PUBLIC "-//W3C//DTD SVG 20010904//EN"
 "http://www.w3.org/TR/2001/REC-SVG-20010904/DTD/svg10.dtd">
<svg version="1.0" xmlns="http://www.w3.org/2000/svg"
 width="256.000000pt" height="256.000000pt" viewBox="0 0 256.000000 256.000000"
 preserveAspectRatio="xMidYMid meet">
<metadata>
Created by potrace 1.11, written by Peter Selinger 2001-2013
</metadata>
<g transform="translate(0.000000,256.000000) scale(0.100000,-0.100000)"
fill="#000000" stroke="none">
<path d="M293 2527 c-2 -4 -10 -7 -16 -6 -28 5 -83 -29 -146 -91 -94 -91 -86
11 -87 -1135 l-2 -1010 25 -47 c37 -68 99 -127 173 -162 l65 -31 960 -1 c579
-1 972 3 990 8 117 37 199 104 243 198 l26 55 -1 985 c0 542 -3 992 -5 1000
-23 81 -93 164 -176 208 -32 17 -62 29 -66 25 -3 -3 -6 -2 -6 3 0 11 -1970 12
-1977 1z"/>
</g>
</svg>
